{
  "accessors": [
    {
      "bufferView": 1,
      "byteOffset": 0,
      "componentType": 5126,
      "normalized": false,
      "count": 10092,
      "type": "VEC3",
      "max": [
        0.6221519708633423,
        1.0016499757766724,
        0.43709298968315125
      ],
      "min": [
        -0.6149269938468933,
        -1.0011999607086182,
        -0.4290350079536438
      ]
    },
    {
      "bufferView": 2,
      "byteOffset": 0,
      "componentType": 5126,
      "normalized": false,
      "count": 10092,
      "type": "VEC2",
      "max": [
        1,
        1
      ],
      "min": [
        0.00002664327621459961,
        0.0006208419799804688
      ]
    },
    {
      "bufferView": 3,
      "byteOffset": 0,
      "componentType": 5126,
      "normalized": false,
      "count": 10092,
      "type": "VEC3",
      "max": [
        0.9994472861289978,
        0.9991229772567749,
        0.999933123588562
      ],
      "min": [
        -0.9997194409370422,
        -0.999851405620575,
        -0.9999268054962158
      ]
    },
    {
      "bufferView": 0,
      "byteOffset": 0,
      "componentType": 5125,
      "normalized": false,
      "count": 29994,
      "type": "SCALAR"
    }
  ],
  "asset": {
    "generator": "pygltflib@v1.16.1",
    "version": "2.0"
  },
  "bufferViews": [
    {
      "buffer": 0,
      "byteOffset": 0,
      "byteLength": 119976,
      "target": 34963
    },
    {
      "buffer": 0,
      "byteOffset": 119976,
      "byteLength": 121104,
      "target": 34962
    },
    {
      "buffer": 0,
      "byteOffset": 241080,
      "byteLength": 80736,
      "target": 34962
    },
    {
      "buffer": 0,
      "byteOffset": 321816,
      "byteLength": 121104,
      "target": 34962
    }
  ],
  "buffers": [
    {
      "uri": "avatar _data.bin",
      "byteLength": 442920
    }
  ],
  "images": [
    {
      "uri": "avatar _img0.jpg"
    }
  ],
  "materials": [
    {
      "pbrMetallicRoughness": {
        "baseColorFactor": [
          1,
          1,
          1,
          1
        ],
        "metallicFactor": 0,
        "roughnessFactor": 0.8,
        "baseColorTexture": {
          "index": 0,
          "texCoord": 0
        }
      },
      "emissiveFactor": [
        0,
        0,
        0
      ],
      "alphaMode": "OPAQUE",
      "doubleSided": true
    }
  ],
  "meshes": [
    {
      "primitives": [
        {
          "attributes": {
            "POSITION": 0,
            "NORMAL": 2,
            "TEXCOORD_0": 1
          },
          "indices": 3,
          "mode": 4,
          "material": 0
        }
      ]
    }
  ],
  "nodes": [
    {
      "mesh": 0,
      "matrix": [
        1,
        0,
        0,
        0,
        0,
        1,
        0,
        0,
        0,
        0,
        1,
        0,
        0,
        0,
        0,
        1
      ]
    }
  ],
  "samplers": [
    {
      "magFilter": 9729,
      "minFilter": 9987,
      "wrapS": 10497,
      "wrapT": 10497
    }
  ],
  "scene": 0,
  "scenes": [
    {
      "nodes": [
        0
      ]
    }
  ],
  "textures": [
    {
      "sampler": 0,
      "source": 0
    }
  ]
}